<svg width="161" height="241" xmlns="http://www.w3.org/2000/svg" xmlns:xlink="http://www.w3.org/1999/xlink" overflow="hidden"><defs><clipPath id="clip0"><rect x="746" y="36" width="161" height="241"/></clipPath></defs><g clip-path="url(#clip0)" transform="translate(-746 -36)"><path d="M863.368 47.8345C869.491 37.2288 883.052 33.595 893.658 39.7182L894.787 40.3698C905.392 46.493 909.026 60.0545 902.903 70.6602L825.168 205.302C819.044 215.907 805.483 219.541 794.877 213.418L793.749 212.766C783.143 206.643 779.509 193.082 785.632 182.476Z" fill="#7F7F7F" fill-rule="evenodd"/><path d="M748.725 241.842C752.416 230.845 757.631 210.809 773.743 208.514 789.854 206.219 804.776 217.42 807.071 233.532 809.366 249.643 791.299 260.032 782.053 266.86 772.807 273.687 757.149 278.667 751.594 274.497 746.039 270.327 745.033 252.839 748.725 241.842Z" fill="#7F7F7F" fill-rule="evenodd"/></g></svg>