<svg width="222" height="223" xmlns="http://www.w3.org/2000/svg" xmlns:xlink="http://www.w3.org/1999/xlink" overflow="hidden"><defs><clipPath id="clip0"><rect x="358" y="40" width="222" height="223"/></clipPath></defs><g clip-path="url(#clip0)" transform="translate(-358 -40)"><path d="M367.5 152C367.5 95.9431 413.167 50.5001 469.5 50.5001 525.833 50.5001 571.5 95.9431 571.5 152 571.5 208.057 525.833 253.5 469.5 253.5 413.167 253.5 367.5 208.057 367.5 152Z" stroke="#7F7F7F" stroke-width="17.3333" stroke-miterlimit="8" fill="none" fill-rule="evenodd"/><path d="M453 131C453 122.163 460.163 115 469 115L469 115C477.837 115 485 122.163 485 131L485 213C485 221.837 477.837 229 469 229L469 229C460.163 229 453 221.837 453 213Z" fill="#7F7F7F" fill-rule="evenodd"/><path d="M453 90C453 81.1634 460.163 74 469 74 477.837 74 485 81.1634 485 90 485 98.8366 477.837 106 469 106 460.163 106 453 98.8366 453 90Z" fill="#7F7F7F" fill-rule="evenodd"/></g></svg>