<svg width="222" height="232" xmlns="http://www.w3.org/2000/svg" xmlns:xlink="http://www.w3.org/1999/xlink" overflow="hidden"><defs><clipPath id="clip0"><rect x="349" y="129" width="222" height="232"/></clipPath></defs><g clip-path="url(#clip0)" transform="translate(-349 -129)"><path d="M462 175.5C462 150.371 483.49 130 510 130 536.51 130 558 150.371 558 175.5 558 200.629 536.51 221 510 221 483.49 221 462 200.629 462 175.5Z" fill="#7F7F7F" fill-rule="evenodd"/><path d="M474 314.5C474 289.371 495.49 269 522 269 548.51 269 570 289.371 570 314.5 570 339.629 548.51 360 522 360 495.49 360 474 339.629 474 314.5Z" fill="#7F7F7F" fill-rule="evenodd"/><path d="M349 251C349 225.595 370.49 205 397 205 423.51 205 445 225.595 445 251 445 276.405 423.51 297 397 297 370.49 297 349 276.405 349 251Z" fill="#7F7F7F" fill-rule="evenodd"/><path d="M0 0 112.762 75.8097" stroke="#7F7F7F" stroke-width="20" stroke-miterlimit="8" fill="none" fill-rule="evenodd" transform="matrix(1 0 0 -1 397 250.81)"/><path d="M385 253 522.143 314.333" stroke="#7F7F7F" stroke-width="20" stroke-miterlimit="8" fill="none" fill-rule="evenodd"/></g></svg>