<svg width="214" height="188" xmlns="http://www.w3.org/2000/svg" xmlns:xlink="http://www.w3.org/1999/xlink" overflow="hidden"><defs><clipPath id="clip0"><rect x="262" y="431" width="214" height="188"/></clipPath></defs><g clip-path="url(#clip0)" transform="translate(-262 -431)"><path d="M350 451C350 440.507 358.507 432 369 432L369 432C379.494 432 388 440.507 388 451L388 556C388 566.494 379.493 575 369 575L369 575C358.507 575 350 566.493 350 556Z" fill="#FFFFFF" fill-rule="evenodd"/><path d="M353.79 438.493C359.224 431.481 369.314 430.202 376.326 435.636L376.326 435.636C383.338 441.07 384.617 451.16 379.183 458.172L336.089 513.779C330.655 520.791 320.565 522.07 313.553 516.635L313.553 516.635C306.541 511.201 305.262 501.111 310.696 494.099Z" fill="#FFFFFF" fill-rule="evenodd"/><path d="M0 15.9669C-3.26165e-15 7.14861 7.14862 0 15.9669 0L15.9669 0C24.7851-3.26165e-15 31.9338 7.14861 31.9338 15.9669L31.9336 86.5095C31.9336 95.3277 24.785 102.476 15.9668 102.476L15.9669 102.476C7.14862 102.476 0 95.3276 0 86.5094Z" fill="#FFFFFF" fill-rule="evenodd" transform="matrix(0.790422 -0.612563 -0.612563 -0.790422 411.45 526.357)"/><path d="M262 599C262 588.507 270.507 580 281 580L456 580C466.493 580 475 588.507 475 599L475 599C475 609.493 466.493 618 456 618L281 618C270.507 618 262 609.493 262 599Z" fill="#FFFFFF" fill-rule="evenodd"/></g></svg>